# xmcd
# Track frame offsets:
# 150
# 10863
# 25363
# 39013
# 56643
# 70075
# 85288
# 100138
# 111465
# 124338
# 137265
# 152600
# 170680
# 195058
# 214675
# 226148
# 241895
# 254365
# 276388
# 296238
# 321013
#
# Disc length: 4447 seconds
# Revision: 0
# Processed by: cddbd v1.5.2PL0 Copyright (c) Steve Scherf et al.
# Submitted via: VisiTrax 2.10.3.257 - For more info visit www.synapsa.com
#
DISCID=21115d15
DTITLE=Louis Armstrong - C'est Si Bon
DYEAR=1900
DGENRE=
TTITLE0=Mame
TTITLE1=When the Saints go Marching in
TTITLE2=Ain't Misbehavin'
TTITLE3=Cabaret
TTITLE4=A Kiss to Build a Dream on
TTITLE5=Please Don't Talk About Me When I'm Gone
TTITLE6=Blueberry Hill
TTITLE7=Hello Dolly
TTITLE8=St Louis Blues
TTITLE9=That's My Desire
TTITLE10=Mack the Knife
TTITLE11=Back Ole Town Blues
TTITLE12=Fly Me to the Moon
TTITLE13=Indiana
TTITLE14=Tiger Rag
TTITLE15=Black and Blue
TTITLE16=C'est Si Bon
TTITLE17=St James Infirmary
TTITLE18=Someday You'll be Sorry
TTITLE19=Sweethearts on Parade
TTITLE20=Jelly Roll Blues
EXTD=
EXTT0=
EXTT1=
EXTT2=
EXTT3=
EXTT4=
EXTT5=
EXTT6=
EXTT7=
EXTT8=
EXTT9=
EXTT10=
EXTT11=
EXTT12=
EXTT13=
EXTT14=
EXTT15=
EXTT16=
EXTT17=
EXTT18=
EXTT19=
EXTT20=
PLAYORDER=
